<?xml version="1.0" encoding="UTF-8"?>
<svg id="_레이어_1" data-name="레이어_1" xmlns="http://www.w3.org/2000/svg" version="1.1" viewBox="0 0 34.61 11.58">
  <!-- Generator: Adobe Illustrator 29.6.1, SVG Export Plug-In . SVG Version: 2.1.1 Build 9)  -->
  <defs>
    <style>
      .st0 {
        fill: #fff;
      }
    </style>
  </defs>
  <path class="st0" d="M1.19,2.85c0-.25-.1-.42-.26-.5-.17-.09-.38-.13-.62-.13v-.48c.24,0,.5.01.77.01h.83c.28,0,.55,0,.83,0,.28,0,.53,0,.76,0v.48c-.23,0-.43.05-.61.14s-.26.24-.26.47v3.07c.42-.46.84-.93,1.24-1.41.4-.48.82-1,1.25-1.54.08-.1.14-.2.19-.29.04-.09.06-.17.04-.23s-.07-.12-.15-.16c-.08-.04-.21-.05-.38-.05v-.48c.27,0,.53.01.77.02s.48,0,.72,0,.48,0,.72,0,.5-.01.76-.02v.48c-.35,0-.63.07-.83.2-.2.13-.41.31-.62.55-.45.52-.85.99-1.21,1.42-.36.43-.74.87-1.13,1.33v.14c.22.25.44.52.67.82s.47.59.71.89c.24.3.49.58.74.86.25.28.49.53.72.74.22.2.43.36.65.49.22.12.41.2.59.22v.48h-.72c-.21,0-.4,0-.58,0-.18,0-.34-.03-.5-.07-.16-.04-.31-.11-.46-.2s-.31-.23-.48-.4c-.09-.1-.18-.19-.26-.29-.09-.1-.21-.24-.38-.44-.16-.2-.39-.46-.67-.8-.28-.34-.66-.8-1.14-1.37-.11-.11-.2-.18-.28-.22v2.72c0,.23.09.39.27.47.18.08.39.12.62.13v.48c-.23,0-.49,0-.76,0s-.55,0-.84,0-.56,0-.84,0c-.28,0-.54,0-.78,0v-.48c.24,0,.45-.05.62-.13.17-.08.26-.24.27-.47V2.85Z"/>
  <path class="st0" d="M9.75,2.71c-.02-.13-.06-.23-.13-.3-.07-.07-.16-.11-.29-.14-.12-.02-.28-.04-.47-.06v-.48c.1,0,.3,0,.59,0,.29,0,.6,0,.94,0h1c.33,0,.59,0,.77-.01v.48c-.21.02-.38.04-.5.07-.12.03-.21.08-.28.16-.06.07-.11.17-.13.3-.02.13-.03.3-.03.53v5.53c0,.23.01.42.03.55.02.14.06.24.13.31.06.07.16.12.29.14.13.02.3.04.52.06v.48h-3.37v-.48c.22-.02.39-.04.52-.06.13-.02.22-.07.29-.14.06-.07.11-.18.13-.31.02-.14.03-.32.03-.55V3.27c0-.24-.01-.43-.03-.56Z"/>
  <path class="st0" d="M22.93,9.56c.06.08.13.14.22.19.09.04.18.07.29.09s.21.03.32.04v.48c-.24,0-.5,0-.79,0-.28,0-.57,0-.86,0s-.57,0-.85,0c-.28,0-.53,0-.76,0v-.49c.26,0,.46-.05.62-.14.16-.08.24-.24.25-.46l-.04-5.58h-.08l-2.52,6.12h-.91l-2.33-6.04h-.1l-.07,5.51c0,.23.08.39.23.47.16.08.35.12.58.13v.48c-.46-.02-.93-.02-1.42-.02-.49,0-.98,0-1.46.02v-.47c.11,0,.23-.02.34-.05.12-.02.22-.06.32-.11.1-.05.18-.11.24-.19.06-.08.1-.18.1-.3l.23-6.38c0-.26-.08-.42-.24-.5-.16-.08-.36-.12-.61-.13v-.48h2.64l2.3,6.12,2.5-6.12h2.44v.48c-.26,0-.47.05-.63.15-.16.1-.23.3-.23.61l.2,6.26c0,.14.03.24.08.32Z"/>
  <path class="st0" d="M25.75.27c.28,0,.51.09.68.28s.26.44.26.76c0,.42-.13.83-.39,1.22-.26.39-.63.71-1.11.97l-.24-.32c.08-.05.17-.11.28-.19.1-.08.2-.17.29-.28.09-.1.17-.22.22-.35s.08-.26.08-.41c0-.18-.07-.31-.2-.38-.12-.07-.28-.1-.47-.07-.07-.07-.12-.15-.16-.25-.03-.09-.04-.18-.04-.26,0-.16.07-.32.19-.47.12-.16.31-.24.59-.25Z"/>
  <path class="st0" d="M28.55,8.34c.03.25.1.46.2.65.1.18.22.34.36.46.14.12.29.22.46.28s.34.09.53.09c.33,0,.6-.09.8-.28s.31-.4.31-.66-.08-.47-.23-.64c-.16-.17-.35-.31-.58-.43-.23-.12-.48-.23-.75-.34-.27-.11-.52-.23-.75-.37-.23-.14-.42-.31-.58-.5-.16-.2-.23-.45-.23-.76,0-.2.04-.4.13-.61s.22-.4.41-.56c.18-.17.42-.31.71-.42s.64-.16,1.05-.16c.12,0,.26.01.41.04.16.02.32.06.49.11s.34.11.51.18.32.16.46.27l-.07,1.11-.52.06c-.07-.34-.24-.62-.51-.82-.27-.2-.57-.3-.91-.29-.08,0-.17.01-.27.04-.1.03-.19.07-.28.14-.08.06-.15.15-.21.26-.06.11-.08.24-.07.39.02.23.11.42.27.56.16.14.37.27.6.38.24.11.49.22.77.33.27.11.53.23.76.38.23.14.43.32.58.54.16.22.23.49.23.83,0,.23-.05.46-.16.69-.11.22-.27.42-.5.6s-.5.32-.82.43c-.33.11-.7.17-1.14.17-.34,0-.68-.04-1.03-.12s-.67-.22-.98-.42c-.02-.08-.03-.19-.04-.33,0-.14-.01-.29-.02-.44s0-.3-.01-.44,0-.25,0-.33l.59-.04Z"/>
</svg>